<?xml version="1.0" ?><svg id="Layer_1" style="enable-background:new 0 0 200 200;" version="1.1" viewBox="0 0 200 200" xml:space="preserve" xmlns="http://www.w3.org/2000/svg" xmlns:xlink="http://www.w3.org/1999/xlink"><path d="M166.7,137.7c-0.2-5.6-0.6-11.2-1.2-16.9c-0.4-2.9-1-5.9-2.2-8.8c-1.2-2.8-2.8-5.5-4.8-7.9c-4-4.8-9.7-8-15.7-9.5  c0,0,0,0-0.1,0c0.4-1.7,0.8-3.5,1.1-5.3c0.2-1.1,0.3-2.2,0.4-3.5c0-0.3,0-0.7,0-1.2c-0.1-0.4-0.1-0.9-0.2-1.4  c-0.2-0.9-0.7-1.6-1.3-2.3c-0.3-0.2-0.6-0.4-1-0.5c-0.4-0.1-0.7-0.3-1.1-0.4c-0.7-0.2-1.8-0.3-2.1-0.3c-0.1,0-0.2,0-0.2,0  c0.6-2.1,1-5,0.8-8.2c-0.3-6.8-1-13.7-3-20.5c-1.9-6.8-5.9-13.4-11.7-18.1c-0.7-0.6-1.5-1.1-2.2-1.6l-2.3-1.5  c-1.6-0.8-3.2-1.7-4.9-2.4c-1.7-0.6-3.3-1.3-5.1-1.8l-2.6-0.6c-0.9-0.2-1.7-0.4-2.7-0.5c-7.2-1.1-14.7-0.1-21.4,2.9  c-5.4,2.5-10.2,6.3-14,10.8c-3.8,4.5-6.5,9.8-8.2,15.4c-0.5,1.4-0.8,2.8-1.1,4.2c-0.1,0.7-0.3,1.4-0.4,2.1l-0.2,2.2l-0.2,2.2  c-0.1,0.7-0.1,1.4-0.1,2.1l-0.2,4.1c-0.2,5.5-0.3,11-0.3,16.4c0.1,21,1.7,41.7,2.7,62.5c-6.3-0.1-12.6,0.7-18.7,3.5  c-0.8,0.3-1.5,0.7-2.3,1.2c-0.8,0.4-1.5,1-2.2,1.5c-1.4,1.2-2.8,2.5-3.8,4.5c-0.3,0.4-0.5,1-0.6,1.5c-0.1,0.5-0.4,1-0.4,1.6  c-0.1,0.6-0.1,1.1-0.1,1.7c0,0.5,0.1,1,0.1,1.5c0,0.5,0.1,1,0.3,1.5c0.2,0.5,0.2,1,0.5,1.6c0.3,0.5,0.5,1.1,0.9,1.6  c0.4,0.5,0.8,1,1.3,1.4c0.6,0.5,1.3,0.9,1.9,1.3c0.6,0.3,1.3,0.6,1.9,0.7c1.3,0.3,2.4,0.4,3.5,0.5c2.1,0.1,4.1-0.1,5.9-0.3  c1.8-0.2,3.6-0.4,5.3-0.5c1.6-0.1,3.5,0,5.3,0h21.8c3.5,0,6.3-1.5,6.3-3.4c0.4,0,0.8-0.3,0.9-1.1v0c0.4-3.1-0.3-6.5-2.1-9.3  c-1.7-2.8-4.4-4.9-7.2-6.5c-5.1-2.7-10.8-3.9-16.4-4.2c0.7-20.8,0.3-41.7,0.9-62.5c0.2-5.4,0.4-10.8,0.8-16.2l0.3-4  c0.1-0.7,0.1-1.4,0.2-2l0.3-1.9l0.3-1.9c0.1-0.6,0.3-1.2,0.4-1.8c0.3-1.2,0.5-2.5,1-3.6c3.1-9.5,9.9-17.9,18.8-22  c5.4-2.5,11.5-3.3,17.5-2.4c0.8,0,1.5,0.3,2.2,0.4l2.2,0.5c1.5,0.4,2.9,1,4.3,1.5c1.4,0.6,2.7,1.3,4,2l1.8,1.2  c0.6,0.4,1.3,0.8,1.8,1.3c4.5,3.8,7.7,8.9,9.5,14.9c1.8,5.9,2.5,12.3,2.7,18.8c0.1,2.9,0.5,5.6,1.1,7.6c-0.2,0-0.5,0-0.7,0  c-0.9,0-1.8,0.1-2.6,0.3c-0.8,0.2-1.5,0.6-2.2,1c-0.4,0.6-0.8,1.1-1,1.8c-0.3,0.6-0.3,1.5-0.4,2.3l-0.1,1.1l0,0.7l0,1.3  c0,1.5,0,2.9,0.1,4.4c0,0.8,0,1.1,0.1,2.9l0,0c-0.7,0.2-1.3,0.4-2,0.6c-2.9,1.1-5.7,2.6-8.2,4.6c-2.5,2-4.6,4.4-6.3,7  c-1.7,2.7-3,5.6-3.8,8.6c-0.2,0.7-0.4,1.5-0.5,2.3c-0.1,0.7-0.3,1.6-0.4,2.2l-0.6,4.2c-1,6.8-1.8,13.7-2.2,20.6  c-0.2,3.5-0.3,7-0.1,10.6c0.2,3.6,0.5,7.2,2,11.2c0.2,0.5,0.5,1,0.7,1.5c0.3,0.5,0.6,1,1,1.5c0.8,1,1.8,1.9,2.8,2.5  c2,1.2,3.9,1.8,5.8,2.3c3.8,0.8,7.3,1.1,10.9,1.1c7.1,0.1,14-0.5,20.8-1.1c3.2-0.3,6.1-0.9,8.1-1.7c2-0.8,3.3-1.6,3.3-2.6  c0-0.9-1.4-1.8-3.6-2.3c-0.8-0.2-1.7-0.3-2.6-0.3v-2.4c0-2.4-0.8-4.8-2.5-7.2c-0.1-0.2-1.6-0.2-1.8,0c-1.7,2.4-2.5,4.8-2.5,7.2v2.6  c-6,0.5-12,1-17.8,1v-3.6c0-2.4-0.8-4.8-2.5-7.2c-0.1-0.2-1.6-0.2-1.8,0c-1.7,2.4-2.5,4.8-2.5,7.2v3.3c-1.3-0.1-2.6-0.3-3.8-0.6  c-1.4-0.3-2.8-0.8-3.7-1.4c-0.5-0.3-0.8-0.6-1-0.9c-0.1-0.1-0.3-0.4-0.4-0.6c-0.1-0.3-0.3-0.5-0.4-0.8c-1-2.4-1.4-5.7-1.5-8.9  c-0.1-2.1-0.1-4.2,0-6.4c0.5,0.4,1,0.6,1.6,0.6h19.9c10.9,0,21.7-0.8,32.5-2.5c0,0,0,0,0,0c0.1,2.4,0.1,4.8,0.1,7.3  c-0.1,2.7-0.3,5.5-0.8,8.1c-0.2,1.3-0.6,2.6-1.1,3.8c-0.5,1.2-1.2,2.3-2.1,2.9h0c-0.5,0.3-0.9,0.5-1.2,0.7c-0.3,0.2-0.5,0.4-0.5,0.6  c0,0.2,0.2,0.4,0.6,0.5c0.4,0.1,1.1,0.1,1.9-0.3h0c1.5-0.8,2.4-2.2,3.1-3.5c0.6-1.3,1.1-2.7,1.5-4.1c0.7-2.8,1.1-5.6,1.4-8.5  C166.9,149,166.9,143.3,166.7,137.7z M77.9,157.3c2.5,1,4.9,2.5,6.5,4.6c1.6,1.9,2.5,4.4,2.7,7c-1.1-1-3.1-1.7-5.4-1.7H59.9  c-1.8,0-3.6,0-5.6,0.1c-2,0.1-3.8,0.3-5.6,0.5c-1.8,0.2-3.5,0.3-5,0.3c-1.5,0-2.6-0.4-2.9-0.7c-0.3-0.2-0.5-0.8-0.7-1.8l-0.1-0.8  c0-0.2,0.1-0.4,0.1-0.6c0-0.2,0.1-0.4,0.1-0.6c0-0.2,0.1-0.4,0.2-0.6c0.7-1.6,2.7-3.2,5-4.3c4.7-2.3,10.4-3.4,16-3.8  C67,154.7,72.8,155.2,77.9,157.3z M133.2,85.9c0.6-0.1,1.6-0.1,2.4-0.2l2.6-0.1c0.6,0,0.4,0,0.6-0.1c0.1,0,0.2-0.1,0.3-0.1  c0.1,0,0.2,0.1,0.3,0.2c0,0.1,0.1,0.1,0.1,0.2c0,0.1,0.1,0.1,0.1,0.4c0.2,0.9,0.3,2,0.5,3c0.2,1.4,0.3,2.9,0.5,4.4  c-0.5-0.5-1.1-0.7-1.7-0.7c-1.5,0.1-3,0.2-4.4,0.3l-1.2,0c0.1,1.2-0.2-3.1-0.1-5.5l0-1.2l0-0.6c0-0.2,0,0,0-0.1c0,0,0,0,0-0.1  C133.2,85.9,133.2,85.9,133.2,85.9z M127.1,142.9c0.1-0.4,0.2-0.8,0.3-1.1c0.3-0.8,0.7-1.5,1.2-2.1c0.6-0.6,1.2-1.1,2-1.6  c0.8-0.4,1.6-0.8,2.5-1c3-0.7,6.5-0.6,9.2,0.7c1.4,0.6,2.6,1.6,3.5,3c0.5,0.8,0.9,1.7,1.2,2.8c-5.4-0.4-10.8-0.6-16.2-0.6H127.1z   M149.7,143.8c0.2-1.4,0.2-3-0.2-4.5c-0.6-2.4-2.1-4.6-4.1-6.1c-2-1.6-4.3-2.5-6.7-3c-2.4-0.4-4.9-0.4-7.3,0.3  c-1.5,0.4-2.9,1-4.3,1.7c-1.4,0.8-2.6,1.8-3.7,3c-1.1,1.2-1.9,2.7-2.5,4.2c-0.4,1.1-0.7,2.3-0.8,3.5h-9.2c-0.5,0-0.9,0.2-1.3,0.4  c0.4-5.9,1.1-11.8,2-17.7l0.6-4.1c0.1-0.7,0.2-1.3,0.3-1.9c0.1-0.6,0.2-1.2,0.4-1.8c0.6-2.4,1.6-4.7,2.9-6.7  c2.5-4.2,6.5-7.4,11.1-9.1c9.2-3.7,20.8-1.4,27.5,6c1.7,1.8,3.1,4,4.1,6.2c1.1,2.3,1.7,4.8,2.2,7.4c0.9,5.4,1.5,10.9,2,16.4  c0.2,2.5,0.4,5,0.5,7.5C158.7,144.7,154.2,144.2,149.7,143.8z"/></svg>