<svg width="769" height="358" viewBox="0 0 769 358" fill="none" xmlns="http://www.w3.org/2000/svg">
<path d="M71.4735 71.8215C89.1216 71.8215 106.275 71.8862 123.426 71.755C126.188 71.7341 129.014 71.0835 131.69 70.3035C139.346 68.0736 143.474 63.0893 143.88 55.98C144.325 48.1869 140.663 41.674 133.377 38.9493C129.39 37.4592 124.939 36.632 120.679 36.5533C105.496 36.2734 90.3073 36.4378 75.1217 36.4536C73.9114 36.4553 72.7029 36.6092 71.4735 36.6932V71.8215ZM71.5242 105.692V146.368C72.0156 146.58 72.264 146.779 72.5141 146.781C83.4726 146.826 94.4347 146.942 105.393 146.853C113.113 146.79 120.882 146.921 128.536 146.097C136.929 145.196 143.923 141.543 146.58 132.61C150.636 118.977 142.069 106.595 126.714 105.89C108.496 105.054 90.2111 105.692 71.5242 105.692ZM32.2108 181.4V2.00558C33.5084 1.92163 34.5997 1.78872 35.6911 1.78872C64.8312 1.78697 93.9695 1.738 123.108 1.83594C133.885 1.87267 144.402 3.66877 154.406 7.83114C176.972 17.221 187.988 38.9038 181.993 62.0119C178.919 73.8625 171.185 81.7832 160.127 87.3954C160.942 87.8764 161.421 88.2244 161.949 88.464C179.165 96.306 188.029 109.972 188.669 128.587C189.342 148.192 181.472 163.574 163.843 173.158C152.97 179.067 141.02 181.358 128.857 181.488C97.1875 181.82 65.5115 181.64 33.839 181.656C33.4262 181.656 33.0117 181.53 32.2108 181.4Z" fill="white"/>
<path d="M423.948 69.0819C424.436 64.1675 424.848 60.0086 425.293 55.5279H459.581V181.511C449.151 181.511 438.911 181.585 428.675 181.38C427.799 181.363 426.428 179.603 426.202 178.472C425.438 174.638 425.085 170.722 424.493 166.223C412.464 180.35 397.167 184.612 379.375 184.222C383.595 173.181 385.657 162.303 381.796 150.645C394.633 152.527 405.885 150.442 414.922 141.243C421.027 135.029 424.086 127.479 423.839 118.738C423.295 99.4864 411.293 84.4599 387.788 84.9478C366.86 85.3833 355.888 100.656 357 126.225C350.954 125.529 344.882 124.284 338.81 124.282C332.708 124.282 326.606 125.519 320.481 126.215C316.733 104.558 325.495 75.6612 349.252 61.5966C368.649 50.1116 406.455 46.4337 423.948 69.0819Z" fill="white"/>
<path d="M481.252 164.938C486.696 155.931 491.845 147.411 497.176 138.593C506.518 146.131 516.609 151.682 528.262 153.245C535.149 154.169 542.218 153.782 549.209 153.852C550.421 153.864 551.676 153.308 552.846 152.85C557.759 150.926 560.382 147.685 560.36 143.687C560.333 139.334 557.839 135.76 552.444 134.574C546.029 133.163 539.404 132.661 532.851 131.937C523.262 130.877 513.984 128.736 505.46 124.089C492.83 117.206 485.753 106.76 485.649 92.1073C485.545 77.5967 491.901 66.6084 504.398 59.4082C518.349 51.3685 533.645 49.8977 549.345 51.1691C561.768 52.1765 573.336 55.7775 583.569 63.1141C585.271 64.3331 586.885 65.6762 588.896 67.2415C582.791 75.0223 576.838 82.6055 570.683 90.4493C560.968 83.5674 550.272 80.5646 538.705 81.3201C534.868 81.5702 530.791 82.4062 527.384 84.1008C520.625 87.4605 520.585 96.0003 527.204 99.638C529.946 101.146 533.255 101.922 536.398 102.345C545.863 103.617 555.513 103.869 564.839 105.759C583.172 109.479 594.008 120.847 595.831 136.907C598.069 156.629 590.18 171.736 573.256 180.038C562.771 185.182 551.519 186.588 540.023 186.628C519.626 186.702 501.259 180.698 485.134 168.088C483.931 167.147 482.761 166.164 481.252 164.938Z" fill="white"/>
<path d="M249.517 181.588H212.803V55.2969H246.904C247.793 59.3228 248.718 63.5202 249.834 68.578C257.868 57.9552 268.203 52.5843 280.948 52.0107C293.542 51.4423 304.84 54.7128 314.777 63.5272C309.706 73.1374 304.636 82.7458 299.42 92.6288C291.209 87.4154 282.729 85.1785 273.425 86.8312C258.839 89.4196 249.724 99.7731 249.589 114.597C249.4 135.274 249.526 155.955 249.517 176.634C249.517 178.155 249.517 179.677 249.517 181.588Z" fill="white"/>
<path d="M687.232 2.06016H723.613V181.52H687.232V2.06016Z" fill="white"/>
<path d="M618.142 54.3627H654.757V181.355H618.142V54.3627Z" fill="white"/>
<path d="M22.7899 241.96C30.1825 235.554 36.629 229.9 43.1611 224.346C45.0831 222.71 47.173 221.248 49.3015 219.888C60.1918 212.922 70.9528 218.495 71.2903 231.507C71.4477 237.525 70.6625 243.568 70.3267 249.6C70.2672 250.67 70.3179 251.747 70.3179 253.538C73.0007 252.19 75.4282 251.383 77.366 249.927C88.3456 241.668 99.054 233.043 110.175 224.984C115.793 220.911 121.839 217.227 128.145 214.372C133.369 212.004 139.508 214.625 141.566 219.143C142.231 220.603 141.787 222.569 141.85 224.304C140.297 224.183 138.738 224.104 137.192 223.928C135.772 223.765 134.163 222.938 132.984 223.364C124.824 226.315 117.974 231.198 113.542 238.751C111.863 241.611 111.368 245.163 110.334 248.4C110.798 248.76 111.261 249.119 111.725 249.479C114.95 247.695 118.54 246.352 121.331 244.042C128.47 238.136 135.291 231.843 142.149 225.603C143.971 223.945 145.59 221.913 148.275 223.553C150.956 225.192 153.167 227.194 152.882 230.909C152.558 235.106 152.514 239.328 152.472 243.54C152.437 247.05 154.351 248.417 157.672 247.573C160.106 246.952 162.632 246.352 164.828 245.198C173.531 240.619 182.144 235.871 190.738 231.093C194.979 228.737 199.219 230.14 200.709 234.79C200.997 235.691 200.572 237.492 199.874 237.938C189.35 244.664 179.143 252.109 166.82 255.332C155.731 258.23 147.586 253.729 143.52 242.933C143.329 242.427 142.999 241.974 142.701 241.436C138.775 244.566 135.071 247.816 131.059 250.626C127.974 252.786 124.64 254.726 121.172 256.172C114.42 258.989 108.425 256.989 104.226 250.983C103.508 249.955 102.861 248.877 102.188 247.83C97.5675 250.714 93.2005 253.786 88.5117 256.249C85.1975 257.989 81.5424 259.369 77.8767 260.093C68.6985 261.908 61.3496 255.208 61.1292 244.762C61.0016 238.601 61.6119 232.425 61.9285 225.372C59.9138 226.421 58.2208 226.974 56.9354 228.025C50.0762 233.623 43.1488 239.157 36.5712 245.075C28.7274 252.134 21.2946 259.645 13.5103 266.772C11.2315 268.858 8.88272 271.435 4.99842 270.016C0.585958 268.407 -1.19792 265.128 0.837799 260.73C4.90748 251.934 9.22725 243.251 13.54 234.571C16.7283 228.151 20.1089 221.829 23.3234 215.423C24.5861 212.908 25.8645 211.01 29.1105 212.78C32.8828 214.835 34.6649 217.889 33.2641 220.715C30.2682 226.755 27.1429 232.733 24.0894 238.744C23.7291 239.456 23.486 240.225 22.7899 241.96Z" fill="white"/>
<path d="M636.526 0.000118123C648.922 0.0385938 657.565 8.63267 657.52 20.8784C657.476 33.0752 648.746 41.5749 636.297 41.5382C623.917 41.5014 615.265 32.8916 615.303 20.6493C615.344 8.45603 624.074 -0.0383576 636.526 0.000118123Z" fill="white"/>
<path d="M359.363 180.096C342.406 173.588 331.065 162.53 324.41 145.889C335.253 141.568 345.946 139.333 356.912 143.637C364.038 146.437 367.113 154.254 364.927 163.77C363.685 169.178 361.366 174.34 359.363 180.096Z" fill="white"/>
<path d="M399.539 225.997C399.968 226.192 400.396 226.386 400.825 226.58C402.458 223.009 404.092 219.439 405.725 215.87C405.297 215.675 404.87 215.483 404.441 215.291L399.539 225.997ZM629.461 221.788C614.305 220.747 599.597 235.312 602.637 248.429C612.796 240.783 620.573 231.29 629.461 221.788ZM336.588 273.078C316.948 286.366 297.775 300.089 282.444 318.358C280.571 320.592 279.058 323.198 277.755 325.819C276.345 328.656 275.586 331.793 278.178 334.445C280.779 337.105 284.243 338.151 287.414 336.237C292.278 333.303 297.365 330.288 301.229 326.23C316.066 310.648 326.675 292.113 336.588 273.078ZM622.349 275.859C604.094 288.779 586.005 301.894 573.537 320.985C571.349 324.334 569.735 328.203 568.591 332.051C567.192 336.75 567.636 341.498 570.629 345.729C573.899 350.353 576.786 351.278 581.122 347.749C585.431 344.24 589.55 340.241 592.839 335.783C606.206 317.673 614.47 296.948 622.349 275.859ZM679.42 249.52C682.778 247.624 686.493 246.161 689.422 243.744C696.357 238.025 702.955 231.897 709.603 225.838C711.5 224.11 713.143 221.774 716.033 223.61C718.807 225.373 720.979 227.451 720.493 231.437C719.984 235.599 720.15 239.857 720.194 244.072C720.224 246.871 721.838 248.299 724.615 247.663C727.333 247.038 730.159 246.412 732.601 245.139C741.319 240.589 749.957 235.872 758.488 230.98C761.354 229.338 763.637 229.179 766.082 231.475C769.791 234.962 769.777 236.869 765.345 239.434C756.961 244.289 748.624 249.286 739.93 253.532C728.884 258.926 715.4 256.983 710.386 241.328C707.42 243.785 704.706 246.362 701.666 248.473C697.752 251.187 693.775 253.95 689.477 255.933C681.958 259.4 674.926 256.701 670.919 249.408C670.323 248.32 669.808 247.189 668.99 245.543C661.755 249.966 654.903 254.59 647.646 258.46C641.183 261.908 637.627 266.708 635.259 273.762C627.733 296.179 618.643 318.007 605.32 337.722C601.573 343.266 597.234 348.628 592.283 353.09C584.637 359.979 576.876 359.43 569.233 352.63C558.53 343.104 555.586 331.996 562.209 319.294C566.372 311.31 572.024 303.836 578.166 297.206C592.117 282.144 609.099 270.694 625.96 259.153C628.171 257.64 630.07 254.97 631.002 252.429C633.494 245.631 635.381 238.612 636.85 231.435C632.604 236.075 628.676 241.069 624.015 245.246C619.995 248.849 615.467 252.25 610.579 254.435C602.777 257.92 597.497 255.377 593.78 247.682C593.548 247.198 593.221 246.76 593.144 246.636C587.192 250.265 581.573 254.363 575.405 257.317C559.91 264.734 549.888 258.13 550.182 241.017C550.268 236.029 550.775 231.047 551.165 224.868C547.566 227.197 544.635 228.607 542.303 230.686C531.072 240.711 520.005 250.917 508.875 261.056C506.379 263.331 503.906 265.633 501.362 267.852C498.906 269.993 496.302 271.308 492.934 269.596C489.651 267.929 488.841 265.209 489.189 261.481C486.64 262.896 484.389 264.277 482.024 265.433C468.948 271.826 458.554 266.192 456.859 251.147C455.532 252.535 454.544 253.611 453.51 254.641C444.446 263.681 435.502 272.847 426.227 281.667C423.218 284.53 419.543 286.892 415.809 288.751C409.095 292.095 400.989 286.884 401.585 279.374C401.977 274.444 403.345 269.368 405.36 264.839C409.066 256.505 413.565 248.525 417.742 240.4C418.441 239.037 419.174 237.692 420.577 235.045C412.785 237.023 405.748 237.9 399.485 240.587C385.548 246.564 371.952 253.35 358.346 260.068C356.308 261.075 354.397 263.223 353.4 265.307C343.171 286.689 331.813 307.428 316.54 325.636C311.12 332.098 304.492 337.943 297.419 342.539C285.371 350.37 269.783 338.577 268.411 328.726C267.601 322.928 269.675 317.898 272.522 313.161C278.488 303.236 286.648 295.145 295.838 288.391C309.991 277.99 324.527 268.081 339.269 258.532C343.989 255.475 347.751 252.397 349.325 246.913C349.93 244.803 351.007 242.827 351.114 240.087C349.941 241.062 348.748 242.014 347.599 243.018C335.141 253.906 321.797 263.48 306.543 270.098C297.843 273.872 288.855 277.037 279.18 275.096C265.24 272.3 254.475 259.589 251.929 243.584C249.162 226.195 252.461 209.677 259.551 193.87C270.396 169.69 285.67 149.184 309.615 136.416C323.772 128.864 338.791 125.704 354.374 131.011C378.89 139.361 385.653 162.562 373.505 185.124C372.982 186.098 370.581 186.864 369.387 186.532C364.694 185.227 363.43 181.327 365.222 176.763C367.006 172.222 368.711 167.539 369.549 162.761C372.143 147.974 363.605 137.748 348.611 137.012C331.675 136.181 317.028 142.182 304.373 152.783C280.16 173.071 264.729 198.638 261.006 230.34C260.158 237.575 260.986 245.318 262.616 252.469C265.506 265.155 273.657 269.669 286.347 266.42C291.615 265.07 296.904 263.254 301.708 260.741C323.749 249.214 343.181 234.28 359.224 215.153C361.111 212.903 362.881 210.445 364.14 207.812C365.626 204.708 367.592 203.459 370.824 204.689C374.163 205.96 375.711 209.163 374.469 212.555C371.38 220.997 368.148 229.389 364.988 237.806C364.066 240.258 363.19 242.726 362.095 245.729C372.862 240.816 383.023 236.18 393.551 231.377C389.522 225.496 389.759 219.287 392.447 213.061C395.333 206.373 401.85 202.393 406.899 204.047C413.536 206.219 417.019 213.161 415.223 220.761C414.776 222.652 414.13 224.495 413.413 226.905C416.393 226.036 418.982 225.193 421.614 224.53C428.471 222.806 434.271 228.511 431.992 235.095C430.162 240.38 427.684 245.468 425.189 250.491C421.31 258.296 417.137 265.953 413.167 273.713C412.173 275.652 411.475 277.744 410.643 279.766C410.919 279.988 411.197 280.208 411.474 280.43C413.632 278.783 416.035 277.377 417.911 275.453C432.256 260.746 446.77 246.188 460.581 230.992C464.072 227.15 465.084 221.113 467.496 216.212C468.642 213.883 468.81 209.733 473.39 211.697C477.976 213.663 479.028 216.854 477.328 221.424C473.764 231.01 470.34 240.655 467.208 250.388C466.338 253.086 466.697 256.182 466.412 260.255C469.878 259.095 472.855 258.697 475.153 257.233C488.436 248.768 500.419 238.918 507.794 224.521C509.333 221.517 510.912 218.533 512.399 215.502C513.609 213.038 514.823 210.976 518.144 212.743C522.112 214.855 523.783 217.919 522.23 221.024C519.277 226.931 516.224 232.79 513.228 238.677C512.864 239.392 512.604 240.162 512.847 241.388C515.659 238.82 518.379 236.143 521.303 233.708C526.924 229.034 532.378 224.084 538.407 219.992C549.131 212.711 560.06 218.444 560.39 231.456C560.551 237.754 559.708 244.078 559.334 250.391C559.287 251.19 559.327 251.995 559.327 253.476C561.688 252.38 563.706 251.759 565.366 250.615C574.518 244.314 583.609 237.925 592.642 231.454C593.84 230.595 594.627 229.133 595.533 227.897C603.217 217.403 613.749 212.792 626.534 213.141C628.973 213.208 631.385 214.25 634.379 214.983C635.194 213.802 636.328 212.246 637.375 210.632C639.133 207.921 641.389 207.762 643.881 209.411C647.337 211.7 650.032 214.63 649.297 219.128C647.897 227.699 646.247 236.232 644.698 244.779C644.556 245.564 644.39 246.344 644.14 247.612C653.745 241.881 662.93 236.44 672.057 230.903C673.095 230.272 673.831 229.126 674.665 228.182C680.475 221.611 687.404 216.704 695.86 214.189C701.198 212.601 706.986 214.558 709.094 218.885C709.839 220.415 709.358 222.543 709.435 224.399C707.873 224.224 706.313 224.035 704.75 223.876C703.2 223.717 701.449 223.047 700.131 223.533C691.687 226.646 684.956 232.068 680.547 239.922C679.128 242.451 678.962 245.685 678.224 248.597C678.623 248.905 679.022 249.212 679.42 249.52Z" fill="white"/>
<path d="M487.729 181.935C489.674 183.543 492.089 184.889 493.468 186.935C494.221 188.056 493.723 190.629 492.925 192.072C490.487 196.491 487.537 200.624 484.971 204.977C483.446 207.564 481.542 208.305 479.092 206.644C476.687 205.01 473.392 203.065 475.101 199.723C477.967 194.12 481.643 188.926 485.064 183.616C485.458 183.006 486.397 182.75 487.729 181.935Z" fill="white"/>
</svg>
